<svg width="66" height="66" viewBox="0 0 66 66" fill="none" xmlns="http://www.w3.org/2000/svg">
<g clip-path="url(#clip0_6_16)">
<path d="M65.9092 35.4747H54.1206C43.8231 35.4747 35.4756 43.8224 35.4756 54.1197V65.9083C51.7279 64.7031 64.704 51.727 65.9092 35.4747Z" fill="#487732"/>
<path d="M30.5254 65.9083V54.1197C30.5254 43.8224 22.1778 35.4747 11.8804 35.4747H0.0917969C1.29685 51.727 14.273 64.7031 30.5254 65.9083Z" fill="#487732"/>
<path d="M65.9092 30.5247C64.704 14.2723 51.7279 1.29612 35.4756 0.0910645V11.8796C35.4756 22.177 43.8231 30.5247 54.1206 30.5247H65.9092Z" fill="#487732"/>
<path d="M30.5254 0.0910645C14.273 1.29612 1.29685 14.2723 0.0917969 30.5247H11.8804C22.1778 30.5247 30.5254 22.177 30.5254 11.8796V0.0910645Z" fill="#487732"/>
<path d="M22.4119 32.9997C26.9865 30.7139 30.7147 26.9858 33.0002 22.4111C35.286 26.9858 39.014 30.7139 43.5888 32.9997C39.014 35.2853 35.286 39.0134 33.0002 43.5881C30.7147 39.0134 26.9865 35.2853 22.4119 32.9997Z" fill="#4CB338"/>
</g>
<defs>
<clipPath id="clip0_6_16">
<rect width="66" height="66" fill="white"/>
</clipPath>
</defs>
</svg>
