<svg width="56" height="56" viewBox="0 0 56 56" fill="none" xmlns="http://www.w3.org/2000/svg">
<path d="M46.0553 22.3037C46.0561 30.8734 52.2415 30.8734 52.2415 22.3037C52.2415 17.2164 49.1484 13.0908 49.1484 13.0908C49.1484 13.0908 46.0553 17.2164 46.0553 22.3037ZM41.4808 37.7973C41.4808 44.3222 47.667 44.3231 47.667 37.7973C47.667 33.9246 44.5739 30.7824 44.5739 30.7824C44.5739 30.7824 41.4808 33.9246 41.4808 37.7973ZM18.4893 30.1831L26.4203 38.2059L38.8838 25.5989L30.9528 17.5769L18.4893 30.1831Z" fill="#52BC6E"/>
<path d="M37.7388 17.563L36.0526 15.8576L34.4015 17.528L30.9531 14.0402L7.0595 38.206L10.507 41.6929L6.587 45.6505L3.75725 42.7884L2.625 43.9355L12.8223 54.25L13.9563 53.1037L11.1213 50.2364L15.0404 46.277L18.4887 49.7639L42.3815 25.599L38.934 22.1121L40.5851 20.4426L38.8981 18.7364L52.269 5.21413L53.375 1.75L37.7388 17.563ZM18.4896 47.2754L9.52087 38.206L30.9531 16.5296L39.921 25.599L18.4896 47.2754Z" fill="#52BC6E"/>
</svg>
