<svg width="56" height="56" viewBox="0 0 56 56" fill="none" xmlns="http://www.w3.org/2000/svg">
<g clip-path="url(#clip0_93_129)">
<path d="M17.5 3.5C17.5 1.56406 19.0641 0 21 0H24.5C26.4359 0 28 1.56406 28 3.5C29.9359 3.5 31.5 5.06406 31.5 7V31.5C31.5 33.4359 29.9359 35 28 35C28 36.9359 26.4359 38.5 24.5 38.5H21C19.0641 38.5 17.5 36.9359 17.5 35C15.5641 35 14 33.4359 14 31.5V7C14 5.06406 15.5641 3.5 17.5 3.5ZM3.5 49H35C42.7328 49 49 42.7328 49 35C49 27.2672 42.7328 21 35 21V14C46.5938 14 56 23.4062 56 35C56 40.3812 53.9766 45.2812 50.6516 49H52.5C54.4359 49 56 50.5641 56 52.5C56 54.4359 54.4359 56 52.5 56H3.5C1.56406 56 0 54.4359 0 52.5C0 50.5641 1.56406 49 3.5 49ZM12.25 42H33.25C34.2125 42 35 42.7875 35 43.75C35 44.7125 34.2125 45.5 33.25 45.5H12.25C11.2875 45.5 10.5 44.7125 10.5 43.75C10.5 42.7875 11.2875 42 12.25 42Z" fill="#52BC6E"/>
</g>
<defs>
<clipPath id="clip0_93_129">
<rect width="56" height="56" fill="white"/>
</clipPath>
</defs>
</svg>
