<svg width="58" height="58" viewBox="0 0 58 58" fill="none" xmlns="http://www.w3.org/2000/svg">
<g clip-path="url(#clip0_17_174)">
<path d="M49.3 0H8.7C3.89512 0 0 3.89512 0 8.7V49.3C0 54.1049 3.89512 58 8.7 58H49.3C54.1049 58 58 54.1049 58 49.3V8.7C58 3.89512 54.1049 0 49.3 0Z" fill="#3B5998"/>
<path d="M32.5117 51.6562V17.7852C32.5117 15.4062 33.1914 13.8203 36.4766 13.8203H40.7812V6.68359C39.9883 6.57031 37.4961 6.34375 34.5508 6.34375C28.4336 6.34375 24.2422 10.082 24.2422 16.9922V51.6562M40.4414 22.8828H17.2188V31.0391H39.4219" fill="white"/>
</g>
<defs>
<clipPath id="clip0_17_174">
<rect width="58" height="58" fill="white"/>
</clipPath>
</defs>
</svg>
