<svg width="56" height="56" viewBox="0 0 56 56" fill="none" xmlns="http://www.w3.org/2000/svg">
<path d="M31.6296 2.48503C30.9186 2.50275 30.2305 2.73222 29.7052 3.26422C29.6524 3.3176 29.605 3.37174 29.5582 3.42828L29.5377 3.40772C27.5856 5.88725 25.6319 9.00881 24.5373 12.4961C23.3126 16.3975 23.1373 20.6719 25.1593 25.0502L23.3034 25.9082C21.7388 22.5205 21.3558 19.1362 21.7142 15.9584C20.7872 16.5042 19.9191 17.181 19.1233 17.9615C16.6768 14.7677 13.657 11.7716 10.7561 9.64899C10.5994 9.49161 10.4224 9.35588 10.2297 9.24539C9.86024 9.03517 9.46627 8.93258 9.06771 8.91399C9.02673 8.91179 8.9857 8.9107 8.94466 8.9107C8.9031 8.9107 8.86 8.91245 8.81833 8.91399C8.23536 8.93619 7.6513 9.12508 7.1298 9.41306C6.17605 9.93981 5.32019 10.8098 4.66886 11.9218C4.01753 13.0338 3.68055 14.2034 3.69477 15.2884C3.70921 16.3736 4.12089 17.4824 5.10647 18.0435C5.14672 18.0663 5.18883 18.0845 5.22963 18.1048L5.21585 18.1321C8.20157 19.9729 12.1463 22.4389 14.6906 25.5287C13.9707 28.0432 13.8334 30.6403 14.4035 32.9012C16.0772 39.5411 21.2312 45.5669 26.7661 49.3793C29.5337 51.2854 32.3883 52.6371 34.8839 53.2622C37.3794 53.887 39.4639 53.7594 40.7799 52.9714C43.7496 51.1941 45.7376 47.98 46.939 44.1635C46.1897 44.6035 45.3971 44.9654 44.5738 45.2434C40.6607 46.5671 36.031 46.1985 32.1462 44.1429C28.2612 42.0873 25.1347 38.2668 24.4319 32.8532L26.4587 32.5902C27.0791 37.3688 29.7297 40.5496 33.1032 42.3346C36.4768 44.1196 40.5855 44.4324 43.9176 43.3053C47.2498 42.1782 49.7878 39.7353 50.3744 35.7687C50.8593 32.4891 49.9516 28.0548 46.6727 22.4934C44.5793 22.7319 42.4432 23.1899 40.4792 23.7581L39.9118 21.796C41.3041 21.3932 42.7765 21.0445 44.2731 20.781C44.5608 20.805 44.8559 20.7836 45.1517 20.7022C45.2612 20.6719 45.3685 20.6343 45.473 20.5895C45.4765 20.589 45.4797 20.5866 45.4832 20.5863C45.4827 20.5854 45.4837 20.5835 45.4832 20.5828C46.3825 20.1945 46.9529 19.328 47.223 18.3918C47.5248 17.345 47.5181 16.1251 47.1923 14.8781C46.8664 13.6312 46.2777 12.5659 45.5003 11.809C44.9173 11.241 44.1644 10.8241 43.3642 10.7765C43.1149 10.7621 42.8648 10.7852 42.6223 10.845L42.6121 10.8006C40.8582 11.4393 38.9226 12.3053 37.034 13.4393C36.0554 14.6837 35.288 15.8983 34.7918 17.0897C34.0211 18.9403 33.8608 20.7122 34.5252 22.7157L32.587 23.3617C31.7711 20.9007 31.9849 18.5127 32.9051 16.3037C33.7172 14.3538 35.0631 12.52 36.6956 10.6844L36.6786 10.6673C36.7478 10.6118 36.814 10.5525 36.8767 10.4896C37.6736 9.68278 37.778 8.50886 37.5159 7.4512C37.2539 6.39355 36.6374 5.34311 35.7317 4.42622L35.7249 4.42272C34.8204 3.50856 33.7806 2.88108 32.7308 2.61453C32.4677 2.54738 32.1986 2.50617 31.9275 2.49149C31.8768 2.48886 31.8245 2.48547 31.7737 2.48492C31.7262 2.48416 31.6775 2.48361 31.6301 2.48492L31.6296 2.48503ZM31.7013 4.52203C31.7407 4.52203 31.7839 4.52203 31.8278 4.52531C31.9448 4.5345 32.0771 4.559 32.2276 4.59717C32.8303 4.7503 33.6018 5.18036 34.2751 5.86199C34.9482 6.54339 35.3765 7.32597 35.5295 7.94339C35.6824 8.56103 35.5688 8.90349 35.4201 9.05431C35.2711 9.20525 34.953 9.31353 34.3504 9.16041C33.7475 9.00728 32.9761 8.57394 32.3029 7.89231C31.6297 7.21091 31.2015 6.42833 31.0484 5.81091C30.8955 5.19327 31.009 4.8542 31.1577 4.70338C31.2556 4.60439 31.4252 4.52313 31.7013 4.52225V4.52203ZM8.93427 10.9511C9.05349 10.9544 9.14886 10.9837 9.21788 11.023C9.40217 11.128 9.58921 11.4062 9.59741 12.0281C9.60561 12.6498 9.38763 13.505 8.90353 14.3315C8.41944 15.1584 7.77544 15.7775 7.2185 16.085C6.66157 16.3927 6.30216 16.3711 6.11786 16.2663C5.93367 16.1613 5.74675 15.883 5.73855 15.2611C5.73024 14.6394 5.94811 13.7807 6.43231 12.9541C6.91652 12.1274 7.56041 11.5118 8.11735 11.2041C8.39571 11.0503 8.62517 10.9783 8.8075 10.958C8.84948 10.9528 8.89176 10.9506 8.93405 10.9512L8.93427 10.9511ZM20.9586 11.0913C19.5368 11.0995 18.0663 11.6915 17.2399 12.6362C17.9889 13.4175 18.7132 14.2162 19.4033 15.0289C20.2615 14.3963 21.182 13.8553 22.1585 13.4327C22.2832 12.9088 22.4262 12.3921 22.5856 11.8844C22.6328 11.734 22.6826 11.5858 22.7326 11.4366C22.189 11.1982 21.5789 11.0879 20.9585 11.0914L20.9586 11.0913ZM43.1754 12.8173C43.2052 12.8151 43.2378 12.8151 43.2711 12.8173C43.4708 12.8326 43.7368 12.95 44.071 13.2755C44.5164 13.7093 44.9703 14.4677 45.2125 15.3946C45.4548 16.3214 45.4333 17.2135 45.2569 17.8249C45.0808 18.4361 44.812 18.6778 44.6077 18.7338C44.4032 18.79 44.0756 18.7234 43.6301 18.2897C43.1847 17.8557 42.7307 17.0973 42.4885 16.1705C42.2462 15.2436 42.2676 14.3516 42.4439 13.7402C42.6202 13.129 42.8891 12.8873 43.0934 12.8313C43.119 12.824 43.1457 12.8197 43.1754 12.8175V12.8173Z" fill="#52BC6E"/>
</svg>
