<svg width="58" height="58" viewBox="0 0 58 58" fill="none" xmlns="http://www.w3.org/2000/svg">
<g clip-path="url(#clip0_17_177)">
<path d="M29.5898 -0.585938C17.4823 -0.585938 13.9414 -0.573444 13.2535 -0.516332C10.7689 -0.309747 9.22281 0.0815903 7.53849 0.920386C6.24045 1.56517 5.21675 2.3125 4.20639 3.36021C2.36634 5.27079 1.25117 7.62107 0.847493 10.4153C0.651221 11.7714 0.594149 12.048 0.582549 18.9767C0.578088 21.2862 0.582549 24.3256 0.582549 28.4023C0.582549 40.5028 0.595931 44.0414 0.653918 44.7287C0.85465 47.1471 1.23381 48.6686 2.03675 50.3329C3.57126 53.5187 6.50194 55.9103 9.95433 56.8028C11.1498 57.1107 12.4701 57.2802 14.1652 57.3605C14.8834 57.3918 22.2035 57.4141 29.5277 57.4141C36.8519 57.4141 44.1768 57.4052 44.8768 57.3695C46.8395 57.2771 47.9792 57.1241 49.2394 56.7983C50.9513 56.3592 52.5468 55.5515 53.9143 54.4317C55.2818 53.3119 56.3885 51.907 57.157 50.3151C57.9443 48.691 58.3436 47.1115 58.5242 44.8194C58.5634 44.3196 58.5799 36.352 58.5799 28.3949C58.5799 20.4368 58.562 12.4838 58.5228 11.9838C58.343 9.65513 57.9417 8.08913 57.1291 6.43381C56.4621 5.07847 55.722 4.06649 54.6467 3.03182C52.7281 1.19885 50.382 0.0833361 47.5858 -0.319996C46.2315 -0.515873 45.9612 -0.573879 39.0296 -0.585926L29.5898 -0.585938Z" fill="url(#paint0_radial_17_177)"/>
<path d="M29.5898 -0.585938C17.4823 -0.585938 13.9414 -0.573444 13.2535 -0.516332C10.7689 -0.309747 9.22281 0.0815903 7.53849 0.920386C6.24045 1.56517 5.21675 2.3125 4.20639 3.36021C2.36634 5.27079 1.25117 7.62107 0.847493 10.4153C0.651221 11.7714 0.594149 12.048 0.582549 18.9767C0.578088 21.2862 0.582549 24.3256 0.582549 28.4023C0.582549 40.5028 0.595931 44.0414 0.653918 44.7287C0.85465 47.1471 1.23381 48.6686 2.03675 50.3329C3.57126 53.5187 6.50194 55.9103 9.95433 56.8028C11.1498 57.1107 12.4701 57.2802 14.1652 57.3605C14.8834 57.3918 22.2035 57.4141 29.5277 57.4141C36.8519 57.4141 44.1768 57.4052 44.8768 57.3695C46.8395 57.2771 47.9792 57.1241 49.2394 56.7983C50.9513 56.3592 52.5468 55.5515 53.9143 54.4317C55.2818 53.3119 56.3885 51.907 57.157 50.3151C57.9443 48.691 58.3436 47.1115 58.5242 44.8194C58.5634 44.3196 58.5799 36.352 58.5799 28.3949C58.5799 20.4368 58.562 12.4838 58.5228 11.9838C58.343 9.65513 57.9417 8.08913 57.1291 6.43381C56.4621 5.07847 55.722 4.06649 54.6467 3.03182C52.7281 1.19885 50.382 0.0833361 47.5858 -0.319996C46.2315 -0.515873 45.9612 -0.573879 39.0296 -0.585926L29.5898 -0.585938Z" fill="url(#paint1_radial_17_177)"/>
<path d="M29.5804 37.4527C34.6692 37.4527 38.7945 33.3274 38.7945 28.2386C38.7945 23.1497 34.6692 19.0244 29.5804 19.0244C24.4915 19.0244 20.3662 23.1497 20.3662 28.2386C20.3662 33.3274 24.4915 37.4527 29.5804 37.4527Z" stroke="white" stroke-width="7.10824"/>
<path d="M38.4594 8.79492H20.7011C14.7208 8.79492 9.8728 13.6429 9.8728 19.6232V37.2034C9.8728 43.1837 14.7208 48.0317 20.7011 48.0317H38.4594C44.4397 48.0317 49.2877 43.1837 49.2877 37.2034V19.6232C49.2877 13.6429 44.4397 8.79492 38.4594 8.79492Z" stroke="white" stroke-width="7.20219"/>
<path d="M41.3064 19.5374C42.7522 19.5374 43.9242 18.3654 43.9242 16.9196C43.9242 15.4738 42.7522 14.3018 41.3064 14.3018C39.8606 14.3018 38.6886 15.4738 38.6886 16.9196C38.6886 18.3654 39.8606 19.5374 41.3064 19.5374Z" fill="white"/>
</g>
<defs>
<radialGradient id="paint0_radial_17_177" cx="0" cy="0" r="1" gradientUnits="userSpaceOnUse" gradientTransform="translate(15.9844 61.8817) rotate(-90) scale(57.4812 53.4624)">
<stop stop-color="#FFDD55"/>
<stop offset="0.1" stop-color="#FFDD55"/>
<stop offset="0.5" stop-color="#FF543E"/>
<stop offset="1" stop-color="#C837AB"/>
</radialGradient>
<radialGradient id="paint1_radial_17_177" cx="0" cy="0" r="1" gradientTransform="matrix(5.04313 25.1949 -103.852 20.7998 -9.13867 3.58662)" gradientUnits="userSpaceOnUse">
<stop stop-color="#3771C8"/>
<stop offset="0.128" stop-color="#3771C8"/>
<stop offset="1" stop-color="#6600FF" stop-opacity="0"/>
</radialGradient>
<clipPath id="clip0_17_177">
<rect width="58" height="58" fill="white"/>
</clipPath>
</defs>
</svg>
