<svg width="24" height="24" viewBox="0 0 24 24" fill="none" xmlns="http://www.w3.org/2000/svg">
<path fill-rule="evenodd" clip-rule="evenodd" d="M12.5932 23.2579L12.5822 23.2599L12.5112 23.2949L12.4912 23.2989L12.4772 23.2949L12.4062 23.2599C12.3955 23.2566 12.3875 23.2583 12.3822 23.2649L12.3782 23.2749L12.3612 23.7029L12.3662 23.7229L12.3762 23.7359L12.4802 23.8099L12.4952 23.8139L12.5072 23.8099L12.6112 23.7359L12.6232 23.7199L12.6272 23.7029L12.6102 23.2759C12.6075 23.2653 12.6018 23.2593 12.5932 23.2579ZM12.8582 23.1449L12.8452 23.1469L12.6602 23.2399L12.6502 23.2499L12.6472 23.2609L12.6652 23.6909L12.6702 23.7029L12.6782 23.7099L12.8792 23.8029C12.8918 23.8063 12.9015 23.8036 12.9082 23.7949L12.9122 23.7809L12.8782 23.1669C12.8748 23.1549 12.8682 23.1476 12.8582 23.1449ZM12.1432 23.1469C12.1388 23.1443 12.1335 23.1434 12.1285 23.1445C12.1234 23.1456 12.119 23.1487 12.1162 23.1529L12.1102 23.1669L12.0762 23.7809C12.0768 23.7929 12.0825 23.8009 12.0932 23.8049L12.1082 23.8029L12.3092 23.7099L12.3192 23.7019L12.3232 23.6909L12.3402 23.2609L12.3372 23.2489L12.3272 23.2389L12.1432 23.1469Z" fill="#6BAF7D"/>
<path fill-rule="evenodd" clip-rule="evenodd" d="M16.552 22.133C15.112 22.08 11.031 21.516 6.757 17.243C2.484 12.969 1.921 8.88897 1.867 7.44797C1.787 5.25197 3.469 3.11897 5.412 2.28597C5.64598 2.18494 5.9022 2.14647 6.15553 2.17435C6.40886 2.20222 6.65059 2.29548 6.857 2.44497C8.457 3.61097 9.561 5.37497 10.509 6.76197C10.7176 7.0667 10.8068 7.43752 10.7596 7.80377C10.7123 8.17002 10.532 8.5061 10.253 8.74797L8.302 10.197C8.20774 10.265 8.14139 10.365 8.11528 10.4783C8.08916 10.5916 8.10505 10.7105 8.16 10.813C8.602 11.616 9.388 12.812 10.288 13.712C11.188 14.612 12.441 15.45 13.3 15.942C13.4077 16.0024 13.5345 16.0193 13.6543 15.9892C13.774 15.9591 13.8777 15.8842 13.944 15.78L15.214 13.847C15.4475 13.5368 15.7919 13.329 16.1752 13.2672C16.5584 13.2053 16.9508 13.2941 17.27 13.515C18.677 14.489 20.319 15.574 21.521 17.113C21.6826 17.3209 21.7854 17.5684 21.8187 17.8296C21.8519 18.0908 21.8144 18.3562 21.71 18.598C20.873 20.551 18.755 22.214 16.552 22.133Z" fill="#6BAF7D"/>
</svg>
