<svg width="24" height="24" viewBox="0 0 24 24" fill="none" xmlns="http://www.w3.org/2000/svg">
<path d="M19.1839 7.80518L16.2189 4.83818C14.1919 2.80818 13.1789 1.79518 12.0899 2.03518C11.0009 2.27518 10.5089 3.62218 9.52188 6.31518L8.85388 8.13818C8.59088 8.85617 8.45888 9.21518 8.22188 9.49318C8.11593 9.61817 7.99502 9.72967 7.86188 9.82518C7.56588 10.0382 7.19788 10.1392 6.46188 10.3422C4.80188 10.8002 3.97088 11.0292 3.65788 11.5722C3.52257 11.8072 3.45217 12.074 3.45388 12.3452C3.45788 12.9722 4.06688 13.5812 5.28388 14.8002L6.69988 16.2162L2.22388 20.6962C2.08748 20.8408 2.01281 21.0328 2.01571 21.2316C2.0186 21.4303 2.09884 21.6201 2.2394 21.7607C2.37995 21.9012 2.56974 21.9814 2.76849 21.9843C2.96724 21.9872 3.15929 21.9126 3.30388 21.7762L7.77888 17.2962L9.24488 18.7642C10.4709 19.9902 11.0839 20.6042 11.7149 20.6042C11.9799 20.6042 12.2409 20.5362 12.4719 20.4042C13.0199 20.0912 13.2499 19.2552 13.7109 17.5822C13.9129 16.8472 14.0139 16.4802 14.2259 16.1832C14.3192 16.0538 14.4265 15.9365 14.5479 15.8312C14.8229 15.5932 15.1799 15.4592 15.8929 15.1912L17.7369 14.4982C20.4009 13.4982 21.7329 12.9972 21.9669 11.9122C22.2019 10.8262 21.1969 9.81918 19.1839 7.80518Z" fill="#6BAF7D"/>
</svg>
