<svg width="45" height="48" viewBox="0 0 45 48" fill="none" xmlns="http://www.w3.org/2000/svg">
<path d="M21 8.16667H14V4.66667H15.1667C16.45 4.66667 17.5 3.61667 17.5 2.33333C17.5 1.05 16.45 0 15.1667 0H8.16667C6.88333 0 5.83333 1.05 5.83333 2.33333C5.83333 3.61667 6.88333 4.66667 8.16667 4.66667H9.33333V8.16667H2.33333C1.05 8.16667 0 9.21667 0 10.5C0 11.7833 1.05 12.8333 2.33333 12.8333V30.3333C2.33333 32.9 4.43333 35 7 35H9.33333V44.3333L14 47.8333V35H16.3333C18.9 35 21 32.9 21 30.3333V12.8333C22.2833 12.8333 23.3333 11.7833 23.3333 10.5C23.3333 9.21667 22.2833 8.16667 21 8.16667ZM16.3333 16.3333H12.25C11.2933 16.3333 10.5 17.1267 10.5 18.0833C10.5 19.04 11.2933 19.8333 12.25 19.8333H16.3333V23.3333H12.25C11.2933 23.3333 10.5 24.1267 10.5 25.0833C10.5 26.04 11.2933 26.8333 12.25 26.8333H16.3333V30.3333H7V12.8333H16.3333V16.3333ZM40.8333 19.8333V18.6667C42.1167 18.6667 43.1667 17.6167 43.1667 16.3333C43.1667 15.05 42.1167 14 40.8333 14H29.1667C27.8833 14 26.8333 15.05 26.8333 16.3333C26.8333 17.6167 27.8833 18.6667 29.1667 18.6667V19.8333C29.1667 21 25.6667 22.54 25.6667 26.8333V42C25.6667 44.5667 27.7667 46.6667 30.3333 46.6667H39.6667C42.2333 46.6667 44.3333 44.5667 44.3333 42V26.8333C44.3333 22.54 40.8333 21 40.8333 19.8333ZM33.8333 19.8333V18.6667H36.1667V19.8333C36.1667 23.5667 39.6667 24.5 39.6667 26.8333V28H30.3333V26.8333C30.3333 24.5 33.8333 23.5667 33.8333 19.8333ZM39.6667 31.5V35H30.3333V31.5H39.6667ZM30.3333 42V38.5H39.6667V42H30.3333Z" fill="#52BC6E"/>
</svg>
