<svg width="58" height="58" viewBox="0 0 58 58" fill="none" xmlns="http://www.w3.org/2000/svg">
<g clip-path="url(#clip0_17_184)">
<path d="M49.3 0H8.7C3.89512 0 0 3.89512 0 8.7V49.3C0 54.1049 3.89512 58 8.7 58H49.3C54.1049 58 58 54.1049 58 49.3V8.7C58 3.89512 54.1049 0 49.3 0Z" fill="#45D354"/>
<path d="M34.8906 30.9258C34.5508 30.6992 34.2109 30.5859 33.8711 31.0391L32.5117 32.8516C32.1719 33.0781 31.9453 33.1914 31.4922 32.9648C29.793 32.0586 27.4141 31.0391 25.375 27.6406C25.2617 27.1875 25.4883 26.9609 25.7148 26.7344L26.7344 25.1484C26.9609 24.9219 26.8477 24.6953 26.7344 24.4688L25.375 21.1836C25.0352 20.2773 24.6953 20.3906 24.3555 20.3906H23.4492C23.2227 20.3906 22.7695 20.5039 22.3164 20.957C19.8242 23.4492 20.8438 26.9609 22.6562 29.2266C22.9961 29.6797 25.2617 33.7578 30.1328 35.9102C33.7578 37.4961 34.5508 37.2695 35.5703 37.043C36.8164 36.9297 38.0625 35.9102 38.6289 34.8906C38.7422 34.5508 39.3086 33.0781 38.8555 32.8516M29.9062 43.5C25.2617 43.5 21.75 41.0078 21.75 41.0078L16.1992 42.4805L17.5586 37.043C17.5586 37.043 15.293 33.5312 15.293 29.1133C15.293 20.957 21.9766 14.1602 30.2461 14.1602C37.9492 14.1602 44.5195 20.1641 44.5195 28.5469C44.5195 36.7031 37.9492 43.3867 29.9062 43.5ZM11.8945 46.7852L21.2969 44.1797C24.02 45.5738 27.0549 46.2466 30.112 46.134C33.1691 46.0215 36.1464 45.1272 38.7595 43.5366C41.3727 41.9459 43.5345 39.7121 45.0387 37.0482C46.5429 34.3844 47.3392 31.3795 47.3516 28.3203C47.3516 18.5781 39.6484 10.7617 29.9062 10.7617C26.7794 10.7697 23.7091 11.5968 21.0013 13.1605C18.2935 14.7242 16.0426 16.97 14.4728 19.6742C12.9029 22.3785 12.0689 25.4468 12.0538 28.5737C12.0387 31.7006 12.8431 34.7768 14.3867 37.4961" fill="white"/>
</g>
<defs>
<clipPath id="clip0_17_184">
<rect width="58" height="58" fill="white"/>
</clipPath>
</defs>
</svg>
